<svg width="24" height="24" viewBox="0 0 24 24" fill="none" xmlns="http://www.w3.org/2000/svg">
<path d="M5.3309 24H18.6695C19.765 23.9999 20.8156 23.53 21.5902 22.6935C22.3649 21.857 22.8001 20.7226 22.8002 19.5396V7.60563C22.8002 7.38151 22.7177 7.16656 22.571 7.00808C22.4242 6.8496 22.2251 6.76056 22.0176 6.76056H18.4176V4.23887C18.4175 3.11468 18.0039 2.03655 17.2677 1.24163C16.5316 0.446702 15.5331 8.15714e-05 14.492 0H9.50837C8.46727 8.15714e-05 7.46883 0.446702 6.73266 1.24163C5.99649 2.03655 5.58288 3.11468 5.5828 4.23887V6.76056H1.9828C1.77524 6.76056 1.57618 6.8496 1.42942 7.00808C1.28265 7.16656 1.2002 7.38151 1.2002 7.60563V19.5396C1.20028 20.7226 1.63551 21.857 2.41014 22.6935C3.18478 23.5299 4.2354 23.9999 5.3309 24V24ZM7.14802 4.23887C7.14803 3.56291 7.39671 2.91463 7.83936 2.43666C8.28201 1.95868 8.88237 1.69015 9.50837 1.69014H14.492C15.118 1.69015 15.7184 1.95868 16.161 2.43666C16.6037 2.91463 16.8524 3.56291 16.8524 4.23887V6.76056H7.14802V4.23887ZM2.76541 8.4507H5.5828V10.9859C5.5828 11.21 5.66526 11.425 5.81202 11.5835C5.95879 11.742 6.15785 11.831 6.36541 11.831C6.57297 11.831 6.77203 11.742 6.9188 11.5835C7.06557 11.425 7.14802 11.21 7.14802 10.9859V8.4507H16.8524V10.9859C16.8524 11.21 16.9348 11.425 17.0816 11.5835C17.2284 11.742 17.4274 11.831 17.635 11.831C17.8425 11.831 18.0416 11.742 18.1884 11.5835C18.3351 11.425 18.4176 11.21 18.4176 10.9859V8.4507H21.235V19.5396C21.235 20.2743 20.9647 20.9789 20.4835 21.4985C20.0024 22.018 19.3499 22.3098 18.6695 22.3099H5.3309C4.65049 22.3098 3.99796 22.018 3.51684 21.4985C3.03572 20.9789 2.76542 20.2743 2.76541 19.5396V8.4507Z" fill="#272727"/>
</svg>
