<svg width="16" height="16" viewBox="0 0 16 16" fill="none" xmlns="http://www.w3.org/2000/svg">
<path d="M3.55361 16H12.446C13.1763 15.9999 13.8767 15.6866 14.3932 15.129C14.9096 14.5713 15.1998 13.815 15.1998 13.0264V5.07042C15.1998 4.921 15.1448 4.77771 15.047 4.67205C14.9491 4.5664 14.8164 4.50704 14.6781 4.50704H12.2781V2.82592C12.278 2.07645 12.0023 1.3577 11.5115 0.827751C11.0207 0.297801 10.3551 5.43809e-05 9.66102 0H6.33859C5.64452 5.43809e-05 4.97889 0.297801 4.48811 0.827751C3.99733 1.3577 3.72159 2.07645 3.72154 2.82592V4.50704H1.32154C1.18317 4.50704 1.05046 4.5664 0.952619 4.67205C0.854773 4.77771 0.799805 4.921 0.799805 5.07042V13.0264C0.799861 13.815 1.09001 14.5713 1.60644 15.129C2.12286 15.6866 2.82327 15.9999 3.55361 16V16ZM4.76502 2.82592C4.76503 2.37527 4.93081 1.94309 5.22591 1.62444C5.52101 1.30579 5.92125 1.12677 6.33859 1.12676H9.66102C10.0784 1.12677 10.4786 1.30579 10.7737 1.62444C11.0688 1.94309 11.2346 2.37527 11.2346 2.82592V4.50704H4.76502V2.82592ZM1.84328 5.6338H3.72154V7.32394C3.72154 7.47336 3.77651 7.61666 3.87436 7.72231C3.9722 7.82797 4.10491 7.88732 4.24328 7.88732C4.38166 7.88732 4.51436 7.82797 4.61221 7.72231C4.71005 7.61666 4.76502 7.47336 4.76502 7.32394V5.6338H11.2346V7.32394C11.2346 7.47336 11.2896 7.61666 11.3874 7.72231C11.4852 7.82797 11.618 7.88732 11.7563 7.88732C11.8947 7.88732 12.0274 7.82797 12.1253 7.72231C12.2231 7.61666 12.2781 7.47336 12.2781 7.32394V5.6338H14.1563V13.0264C14.1563 13.5162 13.9761 13.986 13.6554 14.3323C13.3346 14.6787 12.8996 14.8732 12.446 14.8732H3.55361C3.1 14.8732 2.66498 14.6787 2.34423 14.3323C2.02349 13.986 1.84329 13.5162 1.84328 13.0264V5.6338Z" fill="#272727"/>
</svg>
