<svg width="16" height="16" viewBox="0 0 16 16" fill="none" xmlns="http://www.w3.org/2000/svg">
<path fill-rule="evenodd" clip-rule="evenodd" d="M12.1963 4.74343C12.4559 4.48386 12.4559 4.06301 12.1963 3.80343C11.9368 3.54386 11.5159 3.54386 11.2563 3.80344L7.99967 7.0601L4.74301 3.80343C4.48343 3.54386 4.06258 3.54386 3.80301 3.80344C3.54343 4.06301 3.54343 4.48386 3.80301 4.74344L7.05967 8.0001L3.80301 11.2568C3.54343 11.5163 3.54343 11.9372 3.80301 12.1968C4.06258 12.4563 4.48343 12.4563 4.74301 12.1968L7.99967 8.9401L11.2563 12.1968C11.5159 12.4563 11.9368 12.4563 12.1963 12.1968C12.4559 11.9372 12.4559 11.5163 12.1963 11.2568L8.93967 8.0001L12.1963 4.74343Z" fill="#A3A3A3"/>
</svg>
