<svg width="25" height="24" viewBox="0 0 25 24" fill="none" xmlns="http://www.w3.org/2000/svg">
<g clip-path="url(#clip0_326_4172)">
<path fill-rule="evenodd" clip-rule="evenodd" d="M21.8178 0C23.4361 0 24.75 1.31391 24.75 2.93222V21.0678C24.75 22.6861 23.4361 24 21.8178 24H16.8271V14.9571H19.949L20.543 11.0843H16.8271V8.57095C16.8271 7.51144 17.3461 6.47864 19.0105 6.47864H20.7V3.18145C20.7 3.18145 19.1667 2.9198 17.7008 2.9198C14.6405 2.9198 12.6402 4.77459 12.6402 8.13248V11.0843H9.23836V14.9571H12.6402V24H3.68222C2.06391 24 0.75 22.6861 0.75 21.0678V2.93222C0.75 1.31391 2.06386 0 3.68222 0H21.8178V0Z" fill="#A3A3A3"/>
</g>
<defs>
<clipPath id="clip0_326_4172">
<rect width="24" height="24" fill="white" transform="translate(0.75)"/>
</clipPath>
</defs>
</svg>
