<svg width="25" height="24" viewBox="0 0 25 24" fill="none" xmlns="http://www.w3.org/2000/svg">
<g clip-path="url(#clip0_326_4175)">
<path fill-rule="evenodd" clip-rule="evenodd" d="M21.5921 10.1266V7.08861H19.4868V10.1266H16.3289V12.1519H19.4868V15.1899H21.5921V12.1519H24.75V10.1266H21.5921ZM13.4868 13.5696L12.3289 12.7595C11.9079 12.4557 11.4868 12.0506 11.4868 11.3418C11.4868 10.6329 12.0132 10.0253 12.5395 9.72152C13.9079 8.70886 15.2763 7.59494 15.2763 5.36709C15.2763 3.24051 13.9079 2.02532 13.1711 1.41772H14.9605L16.2237 0H9.69737C5.06579 0 2.75 2.83544 2.75 5.87342C2.75 8.20253 4.64474 10.7342 8.01316 10.7342H8.85526C8.75 11.038 8.43421 11.5443 8.43421 12.0506C8.43421 13.0633 8.85526 13.4684 9.38158 14.0759C7.90789 14.1772 5.17105 14.481 3.17105 15.6962C1.27632 16.8101 0.75 18.3291 0.75 19.443C0.75 21.7722 2.96053 24 7.69737 24C13.3816 24 16.1184 20.962 16.1184 18.0253C16.1184 15.8987 14.9605 14.7848 13.4868 13.5696ZM5.48684 4.35443C5.48684 2.12658 6.85526 1.11392 8.32895 1.11392C11.0658 1.11392 12.5395 4.65823 12.5395 6.68354C12.5395 9.31646 10.3289 9.82278 9.48684 9.82278C6.85526 9.82278 5.48684 6.68354 5.48684 4.35443ZM9.27632 22.5823C5.80263 22.5823 3.59211 21.0633 3.59211 18.8354C3.59211 16.6076 5.69737 15.8987 6.32895 15.5949C7.69737 15.1899 9.48684 15.0886 9.80263 15.0886H10.5395C13.0658 16.8101 14.1184 17.519 14.1184 19.1392C14.1184 21.0633 12.1184 22.5823 9.27632 22.5823Z" fill="#A3A3A3"/>
</g>
<defs>
<clipPath id="clip0_326_4175">
<rect width="24" height="24" fill="white" transform="translate(0.75)"/>
</clipPath>
</defs>
</svg>
