<svg width="24" height="22" viewBox="0 0 24 22" fill="none" xmlns="http://www.w3.org/2000/svg">
<path d="M12.0009 21.8C11.799 21.8 11.6031 21.7146 11.4621 21.5644L1.8774 11.377C-0.0769362 9.39379 -0.558772 6.35525 0.683804 3.82073C0.986701 3.20973 1.37657 2.65427 1.84341 2.16876C3.06199 0.901501 4.69044 0.203068 6.42784 0.203068C8.13826 0.203068 9.74871 0.882986 10.9623 2.11836L11.9999 3.09246L13.0606 2.09676C13.5134 1.63491 14.0492 1.23683 14.639 0.926188C15.5557 0.443765 16.5394 0.199982 17.564 0.199982C20.0042 0.199982 22.2085 1.5845 23.3151 3.81455C23.3161 3.81764 23.3181 3.82073 23.3201 3.82484C24.5597 6.3573 24.0738 9.39585 22.1115 11.3873L12.5388 21.5655C12.3998 21.7146 12.2029 21.8 12.0009 21.8ZM6.40085 1.74394C5.0793 1.75217 3.83973 2.28808 2.91005 3.25498C2.55217 3.62837 2.25327 4.05319 2.02135 4.52019C1.07467 6.45091 1.44454 8.77147 2.94303 10.2918L12.0009 19.9197L21.0469 10.3021C22.5553 8.77148 22.9272 6.44782 21.9795 4.51504C21.1308 2.80651 19.4394 1.74497 17.566 1.74497C16.7803 1.74497 16.0256 1.93218 15.3228 2.30248C14.87 2.54112 14.4561 2.84868 14.0942 3.21795L12.5068 4.70945C12.3688 4.83906 12.1889 4.91106 12.0019 4.91106C11.815 4.91106 11.6351 4.83906 11.4971 4.70945L9.92965 3.2375C8.97897 2.27059 7.7394 1.74394 6.42884 1.74394H6.40085Z" fill="#272727"/>
</svg>
