<svg width="16" height="16" viewBox="0 0 16 16" fill="none" xmlns="http://www.w3.org/2000/svg">
<path d="M8.00063 15.1998C7.86601 15.1998 7.73539 15.1429 7.64142 15.0428L1.2516 8.25113C-0.0512908 6.92901 -0.372515 4.90331 0.45587 3.21363C0.657801 2.8063 0.917712 2.436 1.22894 2.11232C2.04133 1.26748 3.12696 0.801862 4.28523 0.801862C5.42551 0.801862 6.49914 1.25514 7.3082 2.07872L7.99996 2.72813L8.70705 2.06432C9.00895 1.75642 9.36616 1.49104 9.75936 1.28394C10.3705 0.962327 11.0263 0.799805 11.7094 0.799805C13.3361 0.799805 14.8056 1.72282 15.5434 3.20952C15.5441 3.21158 15.5454 3.21363 15.5467 3.21638C16.3731 4.90469 16.0492 6.93038 14.741 8.25799L8.35917 15.0435C8.26654 15.1429 8.13525 15.1998 8.00063 15.1998ZM4.26724 1.82911C3.3862 1.8346 2.55982 2.19187 1.94003 2.83647C1.70144 3.0854 1.50218 3.36861 1.34757 3.67994C0.716447 4.96709 0.96303 6.51413 1.96202 7.52767L8.00063 13.9463L14.0312 7.53453C15.0369 6.51413 15.2848 4.96503 14.653 3.67651C14.0872 2.53749 12.9596 1.8298 11.7107 1.8298C11.1869 1.8298 10.6837 1.9546 10.2152 2.20147C9.91331 2.36056 9.6374 2.5656 9.39615 2.81179L8.33785 3.80612C8.24588 3.89252 8.12592 3.94053 8.0013 3.94053C7.87667 3.94053 7.75671 3.89252 7.66474 3.80612L6.61977 2.82482C5.98598 2.18021 5.1596 1.82911 4.2859 1.82911H4.26724Z" fill="#272727"/>
</svg>
