<svg width="25" height="24" viewBox="0 0 25 24" fill="none" xmlns="http://www.w3.org/2000/svg">
<path fill-rule="evenodd" clip-rule="evenodd" d="M12.7496 13.2394C11.2868 13.2394 3.75 7.16545 3.75 7.16545V6.49807C3.75 5.67113 4.42113 5 5.24956 5H20.2497C21.0789 5 21.75 5.67113 21.75 6.49807L21.738 7.2471C21.738 7.2471 14.2829 13.2394 12.7496 13.2394ZM12.7496 15.2992C14.3533 15.2992 21.738 9.4942 21.738 9.4942L21.75 18.4826C21.75 19.3095 21.0789 19.9807 20.2497 19.9807H5.24956C4.42188 19.9807 3.75 19.3095 3.75 18.4826L3.76198 9.4942C3.76124 9.4942 11.2868 15.2992 12.7496 15.2992Z" fill="#A3A3A3"/>
</svg>
