<svg width="33" height="33" viewBox="0 0 33 33" fill="none" xmlns="http://www.w3.org/2000/svg">
<g clip-path="url(#clip0_85_11566)">
<path fill-rule="evenodd" clip-rule="evenodd" d="M7.74178 5.53836C6.1906 5.76733 4.88881 6.93706 4.50201 8.44933C4.32968 9.12321 4.35093 9.73334 4.58412 10.8097L4.77905 11.709L4.50248 11.671C3.62129 11.5498 2.56079 12.1293 2.10943 12.9787C1.76877 13.6197 1.76607 13.6986 1.97573 16.895C2.07991 18.4833 2.20205 19.9287 2.24848 20.1232C2.60693 21.6245 3.92909 22.809 5.45991 23.0002C5.73471 23.0346 5.79306 23.0606 5.76987 23.1383C5.55916 23.8454 5.2668 25.2054 5.26721 25.4765C5.26927 26.7176 6.8407 27.284 7.668 26.3418C7.90924 26.067 7.91305 26.0561 8.26434 24.6503C8.42669 24.0005 8.58564 23.3698 8.61751 23.2487L8.6755 23.0286H16.8296H24.9836L25.0416 23.2487C25.0735 23.3698 25.2324 24.0005 25.3948 24.6503C25.746 26.0561 25.7499 26.067 25.9911 26.3418C26.8184 27.284 28.3898 26.7176 28.3919 25.4765C28.3923 25.2041 28.0974 23.8343 27.887 23.1313C27.864 23.0544 27.8903 23.0284 27.9923 23.0276C28.3186 23.0251 28.9732 22.8371 29.4368 22.6127C30.3842 22.1542 31.1591 21.1768 31.4106 20.1232C31.457 19.9287 31.5792 18.4833 31.6834 16.895C31.8446 14.4378 31.8616 13.9676 31.8001 13.6668C31.539 12.388 30.2582 11.4764 29.0273 11.6932C28.8276 11.7284 28.6527 11.7456 28.6386 11.7314C28.6244 11.7173 28.6876 11.2885 28.779 10.7786C28.9687 9.71978 28.9862 9.04485 28.8389 8.47228C28.5485 7.3444 27.8077 6.42612 26.7783 5.91812C25.8843 5.47697 26.6773 5.51037 16.8589 5.5008C12.0166 5.49604 7.91388 5.51301 7.74178 5.53836ZM25.3126 6.47302C26.2052 6.57568 26.9241 6.97779 27.4204 7.65196C28.0497 8.50679 28.1079 9.11288 27.7518 11.0994C27.5337 12.3164 27.4884 12.4885 27.3073 12.7893C27.0214 13.264 26.9797 13.4218 26.5162 15.7798C26.2877 16.9419 26.0501 18.0025 25.9882 18.1366C25.9262 18.2707 25.777 18.4556 25.6565 18.5474L25.4375 18.7145L16.9063 18.7298C8.50117 18.7448 8.37175 18.7433 8.14707 18.6287C7.8985 18.5019 7.72511 18.3118 7.62539 18.0566C7.59017 17.9665 7.36214 16.8908 7.11868 15.666C6.63609 13.2382 6.53725 12.9279 6.09287 12.4459C5.8548 12.1875 5.85011 12.1736 5.58898 10.9478C5.30425 9.61131 5.27942 9.2909 5.41577 8.71252C5.68424 7.57361 6.72583 6.6315 7.8786 6.48505C8.43156 6.41474 24.7085 6.40358 25.3126 6.47302ZM4.94386 12.7716C5.25172 12.9233 5.48538 13.1451 5.62654 13.4195C5.69251 13.5478 5.93938 14.6281 6.20991 15.9725C6.49487 17.3888 6.72871 18.4069 6.80589 18.5675C6.99078 18.9524 7.48499 19.4113 7.89051 19.575L8.23077 19.7123H16.8296H25.4283L25.7787 19.5712C26.199 19.402 26.6638 18.9613 26.8557 18.5499C26.9363 18.3774 27.168 17.3702 27.4528 15.9549C27.721 14.6221 27.9666 13.5477 28.0326 13.4195C28.4826 12.5445 29.7375 12.3502 30.435 13.0478C30.6393 13.252 30.8157 13.5619 30.88 13.8291C30.9255 14.0186 30.5918 19.3242 30.5044 19.799C30.3073 20.8709 29.3861 21.7953 28.2868 22.0246C27.8467 22.1164 5.81237 22.1164 5.37227 22.0246C4.65837 21.8758 3.94623 21.3931 3.56583 20.8002C3.16418 20.1743 3.15743 20.1338 2.93955 17.0417C2.82927 15.476 2.75255 14.0827 2.76916 13.9454C2.82439 13.4879 3.16805 12.9914 3.57528 12.7808C3.97733 12.5729 4.53294 12.5692 4.94386 12.7716ZM7.67164 23.0726C7.66372 23.3019 7.0162 25.6438 6.93631 25.732C6.70823 25.9841 6.2058 25.7984 6.2058 25.4621C6.2058 25.34 6.67412 23.358 6.76346 23.102C6.79151 23.0216 7.6744 22.9931 7.67164 23.0726ZM27.1694 24.1731C27.3238 24.7865 27.4508 25.361 27.4517 25.4497C27.4552 25.7963 26.9559 25.9896 26.7228 25.732C26.6423 25.6431 25.995 23.2996 25.9875 23.0701C25.9866 23.0446 26.1891 23.0313 26.4373 23.0408L26.8887 23.0579L27.1694 24.1731Z" fill="#272727" stroke="#272727" stroke-width="0.6"/>
</g>
<defs>
<clipPath id="clip0_85_11566">
<rect width="32" height="32" fill="white" transform="translate(0.833008 0.5)"/>
</clipPath>
</defs>
</svg>
