<svg width="33" height="33" viewBox="0 0 33 33" fill="none" xmlns="http://www.w3.org/2000/svg">
<path d="M28.8583 13.543C28.7572 13.172 28.8921 12.5902 29.0186 12.0337C29.2125 11.199 29.4317 10.2546 28.9848 9.49578C28.5379 8.72007 27.602 8.43339 26.7757 8.18887C26.2361 8.02024 25.6712 7.8516 25.4098 7.59022C25.1484 7.32884 24.9713 6.76391 24.8111 6.22428C24.5582 5.39798 24.2799 4.46206 23.5042 4.01518C23.2007 3.83811 22.8465 3.75379 22.4334 3.75379C21.9528 3.75379 21.4469 3.87184 20.9663 3.98145C20.5278 4.08263 20.1147 4.17538 19.7605 4.17538C19.6425 4.17538 19.5413 4.16695 19.4486 4.14165C19.1029 4.0489 18.6813 3.65261 18.2766 3.27319C17.6442 2.67454 16.9191 2 16 2C15.0809 2 14.3642 2.67454 13.7234 3.27319C13.3187 3.65261 12.8971 4.0489 12.5514 4.14165C12.4671 4.16695 12.3575 4.17538 12.2395 4.17538C11.8938 4.17538 11.4722 4.08263 11.0337 3.98145C10.5447 3.87184 10.0472 3.75379 9.56661 3.75379C9.14503 3.75379 8.79933 3.83811 8.49578 4.01518C7.72007 4.46206 7.43339 5.39798 7.18887 6.22428C7.02024 6.76391 6.8516 7.32884 6.59022 7.59022C6.32884 7.8516 5.76391 8.02867 5.22428 8.18887C4.39798 8.44182 3.46206 8.72007 3.01518 9.49578C2.5683 10.2631 2.78752 11.2074 2.98145 12.0337C3.10793 12.5902 3.24283 13.172 3.14165 13.543C3.0489 13.8887 2.65261 14.3103 2.27319 14.715C1.67454 15.3474 1 16.0725 1 16.9916C1 17.9106 1.67454 18.6273 2.27319 19.2681C2.65261 19.6728 3.0489 20.0944 3.14165 20.4401C3.24283 20.8111 3.10793 21.3929 2.98145 21.9494C2.78752 22.7841 2.5683 23.7285 3.01518 24.4873C3.46206 25.2631 4.39798 25.5497 5.22428 25.7943C5.76391 25.9629 6.32884 26.1315 6.59022 26.3929C6.8516 26.6543 7.02867 27.2192 7.18887 27.7588C7.44182 28.5852 7.72007 29.5211 8.49578 29.968C8.79933 30.145 9.15346 30.2293 9.56661 30.2293C10.0472 30.2293 10.5531 30.1113 11.0337 30.0017C11.4722 29.9005 11.8853 29.8077 12.2395 29.8077C12.3575 29.8077 12.4587 29.8162 12.5514 29.8415C12.8971 29.9342 13.3187 30.3305 13.7234 30.7099C14.3558 31.3086 15.0809 31.9831 16 31.9831C16.9191 31.9831 17.6357 31.3086 18.2766 30.7099C18.6813 30.3305 19.1029 29.9342 19.4486 29.8415C19.5329 29.8162 19.6425 29.8077 19.7605 29.8077C20.1062 29.8077 20.5278 29.9005 20.9663 30.0017C21.4553 30.1113 21.9528 30.2293 22.4334 30.2293C22.855 30.2293 23.2007 30.145 23.5042 29.968C24.2799 29.5211 24.5666 28.5852 24.8111 27.7588C24.9798 27.2192 25.1484 26.6543 25.4098 26.3929C25.6712 26.1315 26.2361 25.9545 26.7757 25.7943C27.602 25.5413 28.5379 25.2631 28.9848 24.4873C29.4317 23.7201 29.2125 22.7757 29.0186 21.9494C28.8921 21.3929 28.7572 20.8111 28.8583 20.4401C28.9511 20.0944 29.3474 19.6728 29.7268 19.2681C30.3255 18.6357 31 17.9106 31 16.9916C31 16.0725 30.3255 15.3558 29.7268 14.715C29.3474 14.3103 28.9511 13.8887 28.8583 13.543ZM28.7993 18.3997C28.3103 18.9224 27.8128 19.4536 27.6358 20.1113C27.4503 20.7943 27.6273 21.5278 27.7875 22.2361C27.9309 22.8685 28.0826 23.5261 27.8887 23.8634C27.6863 24.2091 27.0371 24.403 26.4047 24.597C25.7133 24.8078 24.9966 25.027 24.5076 25.516C24.0185 26.0051 23.7993 26.7217 23.5885 27.4131C23.3946 28.0455 23.2007 28.6948 22.855 28.8971C22.7454 28.9561 22.602 28.9899 22.4165 28.9899C22.0793 28.9899 21.6661 28.8971 21.2277 28.7959C20.7386 28.6863 20.2327 28.5683 19.7437 28.5683C19.5076 28.5683 19.3052 28.5936 19.1113 28.6442C18.4536 28.8212 17.9224 29.3187 17.3997 29.8077C16.9106 30.2631 16.4047 30.7352 15.9916 30.7352C15.5784 30.7352 15.0725 30.2631 14.5835 29.8077C14.0607 29.3187 13.5295 28.8212 12.8718 28.6442C12.6779 28.5936 12.4671 28.5683 12.2395 28.5683C11.7504 28.5683 11.2445 28.6863 10.7555 28.7959C10.317 28.8971 9.91231 28.9899 9.56661 28.9899C9.38111 28.9899 9.23777 28.9561 9.12816 28.8971C8.78246 28.6948 8.58853 28.0455 8.3946 27.4131C8.18381 26.7217 7.96459 26.0051 7.47555 25.516C6.98651 25.027 6.26981 24.8078 5.57841 24.597C4.94604 24.403 4.2968 24.2091 4.09444 23.8634C3.90051 23.5261 4.05228 22.8769 4.19562 22.2361C4.35582 21.5278 4.53288 20.7943 4.34739 20.1113C4.17032 19.4536 3.67285 18.9224 3.18381 18.3997C2.7285 17.9106 2.25632 17.4047 2.25632 16.9916C2.25632 16.57 2.7285 16.0725 3.18381 15.5835C3.67285 15.0607 4.17032 14.5295 4.34739 13.8718C4.53288 13.1889 4.35582 12.4553 4.19562 11.747C4.05228 11.1147 3.90051 10.457 4.09444 10.1197C4.2968 9.77403 4.94604 9.5801 5.57841 9.38617C6.26981 9.17538 6.98651 8.95615 7.47555 8.46711C7.96459 7.97808 8.18381 7.26138 8.3946 6.56998C8.58853 5.9376 8.78246 5.28836 9.12816 5.086C9.23777 5.02698 9.38111 4.99325 9.56661 4.99325C9.90388 4.99325 10.317 5.086 10.7555 5.18718C11.2445 5.2968 11.7504 5.41484 12.2395 5.41484C12.4755 5.41484 12.6779 5.38954 12.8718 5.33895C13.5295 5.16189 14.0607 4.66442 14.5835 4.17538C15.0725 3.72007 15.5784 3.24789 15.9916 3.24789C16.4047 3.24789 16.9106 3.72007 17.3997 4.17538C17.9224 4.66442 18.4536 5.16189 19.1113 5.33895C19.3052 5.38954 19.516 5.41484 19.7437 5.41484C20.2327 5.41484 20.7386 5.2968 21.2277 5.18718C21.6661 5.086 22.0708 4.99325 22.4165 4.99325C22.602 4.99325 22.7454 5.02698 22.855 5.086C23.2007 5.28836 23.3946 5.9376 23.5885 6.56998C23.7993 7.26138 24.0185 7.97808 24.5076 8.46711C24.9966 8.95615 25.7133 9.17538 26.4047 9.38617C27.0371 9.5801 27.6863 9.77403 27.8887 10.1197C28.0826 10.457 27.9309 11.1062 27.7875 11.747C27.6273 12.4553 27.4503 13.1889 27.6358 13.8718C27.8128 14.5295 28.3103 15.0607 28.7993 15.5835C29.2546 16.0725 29.7268 16.5784 29.7268 16.9916C29.7352 17.4131 29.2631 17.9106 28.7993 18.3997Z" fill="#272727"/>
<path d="M11.1853 15.1872C12.8463 15.1872 14.187 13.8381 14.187 12.1855C14.187 10.5245 12.8379 9.18384 11.1853 9.18384C9.52423 9.18384 8.18359 10.5329 8.18359 12.1855C8.18359 13.8381 9.53267 15.1872 11.1853 15.1872ZM11.1853 10.4402C12.1465 10.4402 12.9222 11.2243 12.9222 12.1771C12.9222 13.1383 12.1381 13.914 11.1853 13.914C10.2325 13.914 9.44835 13.1299 9.44835 12.1771C9.44835 11.2243 10.2325 10.4402 11.1853 10.4402Z" fill="#272727"/>
<path d="M20.8152 18.796C19.1541 18.796 17.8135 20.145 17.8135 21.7976C17.8135 23.4587 19.1626 24.7993 20.8152 24.7993C22.4762 24.7993 23.8169 23.4503 23.8169 21.7976C23.8169 20.145 22.4678 18.796 20.8152 18.796ZM20.8152 23.543C19.854 23.543 19.0782 22.7589 19.0782 21.8061C19.0782 20.8533 19.8624 20.0691 20.8152 20.0691C21.7679 20.0691 22.5521 20.8533 22.5521 21.8061C22.5521 22.7589 21.7679 23.543 20.8152 23.543Z" fill="#272727"/>
<path d="M22.9974 9.99327C22.7529 9.74875 22.3482 9.74875 22.1037 9.99327L9.00077 23.0877C8.75625 23.3322 8.75625 23.7369 9.00077 23.9815C9.12725 24.1079 9.28745 24.167 9.44765 24.167C9.60786 24.167 9.76806 24.1079 9.89454 23.9815L22.9974 10.8955C23.2419 10.6425 23.2419 10.2462 22.9974 9.99327Z" fill="#272727"/>
</svg>
