<svg width="33" height="33" viewBox="0 0 33 33" fill="none" xmlns="http://www.w3.org/2000/svg">
<path d="M7.3125 26.8121H25.6868V21.5171H7.3125V26.8121ZM7.7625 21.9672H25.2368V26.3621H7.7625V21.9672Z" fill="#272727" stroke="#272727" stroke-width="0.4"/>
<path d="M26.5521 4.68787H6.44725C6.09725 4.68787 5.8125 4.97268 5.8125 5.32262V19.8324C5.8125 19.8966 5.82225 19.9586 5.84013 20.0171H5.8125V28.3121H27.1868V20.0171H27.1592C27.177 19.9586 27.1868 19.8966 27.1868 19.8324V16.2169V11.8169V5.32262C27.1868 4.97268 26.902 4.68787 26.5521 4.68787ZM6.2625 5.32262C6.2625 5.22074 6.34538 5.13787 6.44725 5.13787H16.1213V7.41687H6.2625V5.32262ZM9.19625 9.36687C9.41682 9.36687 9.59625 9.54631 9.59625 9.76687V14.7012C9.59625 14.7099 9.58925 14.7169 9.58063 14.7169H8.81188C8.80325 14.7169 8.79625 14.7098 8.79625 14.7012V9.76687C8.79625 9.54631 8.97569 9.36687 9.19625 9.36687ZM6.2625 7.86687H8.89175V8.97424C8.57325 9.09699 8.34625 9.40556 8.34625 9.76687V14.7012C8.34625 14.958 8.55506 15.1669 8.81188 15.1669H9.58063C9.83738 15.1669 10.0463 14.958 10.0463 14.7012V9.76687C10.0463 9.34787 9.74125 8.99962 9.34182 8.93024V7.86687H12.7293V8.94918C12.3719 9.04968 12.1088 9.37774 12.1088 9.76687V14.7012C12.1088 14.958 12.3177 15.1669 12.5744 15.1669H13.3432C13.5999 15.1669 13.8088 14.958 13.8088 14.7012V9.76687C13.8088 9.37456 13.5413 9.04437 13.1793 8.94687V7.86687H16.1213V11.8169H16.1211V16.2169H16.1213V20.0171H14.209C14.2554 19.9182 14.2822 19.8082 14.2822 19.6919C14.2822 19.578 14.2566 19.4702 14.212 19.3729H14.3816C14.8057 19.3729 15.1507 19.0278 15.1507 18.6038C15.1507 18.1798 14.8057 17.8347 14.3816 17.8347H14.1217C14.1663 17.7374 14.1919 17.6296 14.1919 17.5157C14.1919 17.0917 13.8468 16.7467 13.4228 16.7467H8.56088C8.13681 16.7467 7.79181 17.0917 7.79181 17.5157C7.79181 17.9398 8.13681 18.2848 8.56088 18.2848H8.82082C8.77619 18.3821 8.75063 18.4899 8.75063 18.6038C8.75063 18.7177 8.77619 18.8255 8.82082 18.9228H8.65119C8.22713 18.9228 7.88213 19.2679 7.88213 19.6919C7.88213 19.8082 7.90888 19.9182 7.95525 20.0171H6.44725C6.34538 20.0171 6.2625 19.9342 6.2625 19.8324V7.86687ZM12.9588 9.36687C13.1793 9.36687 13.3588 9.54631 13.3588 9.76687V14.7012C13.3588 14.7099 13.3518 14.7169 13.3431 14.7169H12.5744C12.5658 14.7169 12.5588 14.7098 12.5588 14.7012V9.76687C12.5588 9.54631 12.7382 9.36687 12.9588 9.36687ZM13.5131 18.9229H9.51963C9.34369 18.9229 9.20063 18.7797 9.20063 18.6039C9.20063 18.4279 9.34375 18.2849 9.51963 18.2849H13.4228H14.3816C14.5575 18.2849 14.7006 18.4279 14.7006 18.6039C14.7006 18.7797 14.5574 18.9229 14.3816 18.9229H13.5131ZM13.8322 19.6919C13.8322 19.8678 13.6891 20.0109 13.5132 20.0109H8.65125C8.47531 20.0109 8.33225 19.8678 8.33225 19.6919C8.33225 19.516 8.47538 19.3729 8.65125 19.3729H9.51975H13.5133C13.6891 19.3729 13.8322 19.516 13.8322 19.6919ZM8.56088 17.8347C8.38494 17.8347 8.24188 17.6916 8.24188 17.5157C8.24188 17.3399 8.385 17.1967 8.56088 17.1967H13.4228C13.5987 17.1967 13.7418 17.3399 13.7418 17.5157C13.7418 17.6916 13.5987 17.8347 13.4228 17.8347H9.51963H8.56088ZM26.7368 27.8621H6.2625V20.4672H6.44725H26.5521H26.7368V27.8621ZM26.7368 19.8324C26.7368 19.9342 26.654 20.0171 26.5521 20.0171H16.5713V16.2169H26.7367V19.8324H26.7368ZM26.7368 15.7669H16.5713V12.2669H26.7367V15.7669H26.7368ZM26.7368 11.8169H16.5713V5.13787H26.552C26.6539 5.13787 26.7367 5.22074 26.7367 5.32262V11.8169H26.7368Z" fill="#272727" stroke="#272727" stroke-width="0.4"/>
<path d="M17.4211 23.9396H15.3711V24.3896H17.4211V23.9396Z" fill="#272727" stroke="#272727" stroke-width="0.4"/>
</svg>
