<svg width="33" height="33" viewBox="0 0 33 33" fill="none" xmlns="http://www.w3.org/2000/svg">
<path d="M24.9973 15.8629H8.33496C7.98977 15.8629 7.70996 15.5831 7.70996 15.2379V4.92545C7.70996 4.58032 7.98977 4.30045 8.33496 4.30045H24.9973C25.3425 4.30045 25.6223 4.58032 25.6223 4.92545V15.2379C25.6223 15.5831 25.3425 15.8629 24.9973 15.8629ZM8.95996 14.6129H24.3723V5.55044H8.95996V14.6129Z" fill="#272727"/>
<path d="M30.5414 28.6996H2.45801C2.11282 28.6996 1.83301 28.4197 1.83301 28.0746V17.7412C1.83301 17.3961 2.11282 17.1162 2.45801 17.1162H30.5413C30.8865 17.1162 31.1663 17.3961 31.1663 17.7412V28.0746C31.1664 28.4197 30.8865 28.6996 30.5414 28.6996ZM3.08301 27.4496H29.9163V18.3662H3.08301V27.4496Z" fill="#272727"/>
<path d="M30.5417 28.6996H16.5C16.1548 28.6996 15.875 28.4197 15.875 28.0746V17.7412C15.875 17.3961 16.1548 17.1162 16.5 17.1162H30.5417C30.8869 17.1162 31.1667 17.3961 31.1667 17.7412V28.0746C31.1667 28.4197 30.8868 28.6996 30.5417 28.6996ZM17.125 27.4496H29.9167V18.3662H17.125V27.4496Z" fill="#272727"/>
<path d="M17.8848 17.6925H15.4473C15.1021 17.6925 14.8223 17.4126 14.8223 17.0675V15.2379C14.8223 14.8928 15.1021 14.6129 15.4473 14.6129H17.8848C18.23 14.6129 18.5098 14.8928 18.5098 15.2379V17.0675C18.5098 17.4127 18.2299 17.6925 17.8848 17.6925ZM16.0723 16.4425H17.2598V15.8629H16.0723V16.4425Z" fill="#272727"/>
<path d="M14.1729 24.4048C13.8277 24.4048 13.5479 24.1249 13.5479 23.7798V22.0298C13.5479 21.6846 13.8277 21.4048 14.1729 21.4048C14.518 21.4048 14.7979 21.6846 14.7979 22.0298V23.7798C14.7979 24.1249 14.518 24.4048 14.1729 24.4048Z" fill="#272727"/>
<path d="M18.7979 24.4048C18.4527 24.4048 18.1729 24.1249 18.1729 23.7798V22.0298C18.1729 21.6846 18.4527 21.4048 18.7979 21.4048C19.143 21.4048 19.4229 21.6846 19.4229 22.0298V23.7798C19.4229 24.1249 19.143 24.4048 18.7979 24.4048Z" fill="#272727"/>
</svg>
