<svg width="33" height="33" viewBox="0 0 33 33" fill="none" xmlns="http://www.w3.org/2000/svg">
<path fill-rule="evenodd" clip-rule="evenodd" d="M26.3147 3.11719C26.2135 3.20056 25.9312 3.95886 25.3363 5.74453C24.8763 7.12513 24.5 8.32433 24.5 8.40937C24.5 8.49449 24.574 8.63806 24.6644 8.72846C24.8287 8.89286 24.8289 8.89286 26.2715 8.89286H27.7143V10.3356C27.7143 11.7782 27.7143 11.7784 27.5499 11.9427C27.2171 12.2756 27.1786 12.1985 27.1786 11.2001C27.1786 10.3263 27.1725 10.287 27.0142 10.1287L26.8498 9.96429H25.0357H23.2216L23.0573 10.1287L22.8929 10.293V12.6429V14.9927L23.0573 15.157L23.2216 15.3214H25.0357H26.8498L27.0142 15.157C27.1724 14.9989 27.1786 14.959 27.1786 14.0931V13.1935L27.4273 13.1468C27.9351 13.0515 28.3565 12.7402 28.6077 12.2746C28.7419 12.0259 28.7538 11.8949 28.7734 10.4498L28.7946 8.89286H29.3258H29.8571V9.87248V10.8521L29.6266 11.1073C29.3517 11.4115 29.2725 11.747 29.3862 12.1263C29.6844 13.1214 31.1017 13.1203 31.3999 12.1248C31.5131 11.7471 31.4336 11.4111 31.1591 11.1073L30.9286 10.8521V9.87248V8.89286H31.2999C31.6049 8.89286 31.7007 8.86346 31.8356 8.72846C31.926 8.63806 32 8.49449 32 8.40937C32 8.32433 31.6237 7.12513 31.1637 5.74453C30.5688 3.95886 30.2864 3.20056 30.1853 3.11719C30.0578 3.01205 29.859 3 28.25 3C26.641 3 26.4422 3.01205 26.3147 3.11719ZM30.0973 5.96317L30.7171 7.82143H28.2499H25.7826L26.38 6.03013C26.7085 5.04489 26.9919 4.20047 27.0095 4.15359C27.0342 4.08797 27.3217 4.07257 28.2596 4.08663L29.4775 4.10491L30.0973 5.96317ZM6.19317 7.35824C5.77411 7.45975 5.16821 7.81728 4.87357 8.1369C4.72324 8.30002 4.5048 8.63484 4.38828 8.8808L4.17634 9.32812L4.15712 13.3962L4.13797 17.4643H3.23335C2.36221 17.4643 2.32263 17.4704 2.1644 17.6287L2 17.793V24.1607V30.5284L2.1644 30.6927L2.32873 30.8571H12.1786H22.0284L22.1927 30.6927L22.3571 30.5284V24.1607V17.793L22.1927 17.6287C22.0298 17.4656 22.018 17.4643 20.75 17.4643C19.482 17.4643 19.4702 17.4656 19.3073 17.6287C19.1723 17.7636 19.1429 17.8594 19.1429 18.1644V18.5357H12.1786H5.21429V14.128C5.21429 9.09857 5.19346 9.30549 5.7492 8.80587C5.92632 8.64663 6.19076 8.48056 6.33688 8.43676C6.51775 8.38259 7.27618 8.35714 8.7125 8.35714C11.1055 8.35714 11.2162 8.37509 11.6907 8.84036C12.025 9.16801 12.1786 9.56779 12.1786 10.1101V10.5H11.7205C11.2148 10.5 10.3904 10.6866 9.9867 10.8926C9.54011 11.1205 8.97621 11.5892 8.68679 11.9732C8.3152 12.4662 8.11645 12.914 7.96833 13.592C7.78478 14.4317 7.80587 14.4104 7.02574 14.5475C6.65556 14.6125 6.35268 14.6845 6.35268 14.7074C6.35268 14.7303 6.56382 14.9616 6.82183 15.2214L7.29105 15.6937L7.19301 16.3921C7.13911 16.7762 7.10127 17.0961 7.10891 17.1029C7.11654 17.1098 7.41754 16.9781 7.77781 16.8104L8.43286 16.5056L9.1027 16.8139L9.77254 17.1222L9.73846 16.9082C9.71971 16.7905 9.6723 16.4701 9.63313 16.1961L9.56187 15.698L10.0332 15.2235C10.2924 14.9626 10.5045 14.7295 10.5045 14.7056C10.5045 14.6816 10.201 14.6089 9.83007 14.544C9.20623 14.4348 9.14817 14.4114 9.05556 14.2323C8.84824 13.8313 9.18272 12.9542 9.76491 12.3721C10.3201 11.8169 10.9206 11.5763 11.76 11.573L12.1786 11.5714V12.4945V13.4176L11.9751 13.5377C11.6691 13.7185 11.4394 14.1125 11.398 14.5273C11.3675 14.8341 11.3903 14.9393 11.5551 15.2522C11.712 15.55 11.8144 15.6529 12.1048 15.8046C12.5607 16.0428 12.8678 16.0428 13.3237 15.8046C13.7867 15.5628 14.0816 15.0587 14.0373 14.5848C13.9975 14.158 13.8029 13.7914 13.5084 13.5879L13.2551 13.4129L13.2525 12.4922L13.25 11.5714L13.6685 11.573C14.8056 11.5775 15.6807 12.099 16.1605 13.058L16.398 13.5327L16.0592 13.8576C15.4688 14.4237 15.2669 15.1584 15.4981 15.8999C15.6627 16.4279 16.2071 16.9886 16.7211 17.1593C17.1579 17.3044 17.9117 17.2773 18.3058 17.1024L18.5737 16.9836L18.2388 16.8325C17.8304 16.6483 17.3702 16.1628 17.2733 15.814C17.1728 15.4519 17.1852 14.9835 17.3005 14.7857C17.3542 14.6936 17.4438 14.5221 17.4997 14.4047C17.6212 14.1488 17.953 13.8833 18.3119 13.7549L18.5737 13.6612L18.2695 13.5233C18.1022 13.4475 17.8397 13.3654 17.6862 13.3409C17.4243 13.299 17.4006 13.2765 17.3001 12.9738C17.0516 12.2258 16.3058 11.3537 15.587 10.9706C15.0805 10.7006 14.2795 10.5 13.708 10.5H13.25L13.2492 10.0815C13.2471 8.93103 12.6736 8.01368 11.6549 7.53114L11.2076 7.3192L8.83036 7.30728C7.52288 7.30071 6.33614 7.32362 6.19317 7.35824ZM26.1071 11.5714V12.1071H25.468C24.8785 12.1071 24.8159 12.1199 24.6644 12.2715C24.5607 12.3751 24.5 12.5124 24.5 12.6429C24.5 12.7733 24.5607 12.9106 24.6644 13.0142C24.8159 13.1658 24.8785 13.1786 25.468 13.1786H26.1071V13.7143V14.25H25.0357H23.9643V12.6429V11.0357H25.0357H26.1071V11.5714ZM4.14286 24.1607V29.7857H3.60714H3.07143V24.1607V18.5357H3.60714H4.14286V24.1607ZM21.2857 24.1607V29.7857H20.75H20.2143V24.1607V18.5357H20.75H21.2857V24.1607ZM19.1429 20.1429V20.6786H12.1786H5.21429V20.1429V19.6071H12.1786H19.1429V20.1429ZM6.28571 24.6964V27.6429H5.75H5.21429V24.6964V21.75H5.75H6.28571V24.6964ZM8.42857 24.6964V27.6429H7.89286H7.35714V24.6964V21.75H7.89286H8.42857V24.6964ZM10.5714 24.6964V27.6429H10.0357H9.5V24.6964V21.75H10.0357H10.5714V24.6964ZM12.7143 24.6964V27.6429H12.1786H11.6429V24.6964V21.75H12.1786H12.7143V24.6964ZM14.8571 24.6964V27.6429H14.3214H13.7857V24.6964V21.75H14.3214H14.8571V24.6964ZM17 24.6964V27.6429H16.4643H15.9286V24.6964V21.75H16.4643H17V24.6964ZM19.1429 24.6964V27.6429H18.6071H18.0714V24.6964V21.75H18.6071H19.1429V24.6964ZM25.7358 22.4501L25.5714 22.6144V24.3251V26.0357H24.6644C23.7906 26.0357 23.7513 26.0417 23.593 26.2001L23.4286 26.3644V28.4464V30.5284L23.593 30.6927L23.7573 30.8571H27.7143H31.6713L31.8356 30.6927L32 30.5284V28.4464V26.3644L31.8356 26.2001C31.6841 26.0485 31.6215 26.0357 31.032 26.0357H30.3929V24.3251V22.6144L30.2285 22.4501L30.0641 22.2857H27.9821H25.9002L25.7358 22.4501ZM29.3214 24.6964V26.0357H27.9821H26.6429V24.6964V23.3571H27.9821H29.3214V24.6964ZM27.1786 28.4464V29.7857H25.8393H24.5V28.4464V27.1071H25.8393H27.1786V28.4464ZM30.9286 28.4464V29.7857H29.5893H28.25V28.4464V27.1071H29.5893H30.9286V28.4464ZM19.1429 29.25V29.7857H12.1786H5.21429V29.25V28.7143H12.1786H19.1429V29.25Z" fill="#272727"/>
</svg>
