<svg width="33" height="33" viewBox="0 0 33 33" fill="none" xmlns="http://www.w3.org/2000/svg">
<path d="M31 11.9339C30.9946 11.9111 30.9946 11.8873 31 11.8645C30.9725 11.7708 30.9252 11.6841 30.8613 11.6103L26.3781 7.16177C26.2731 7.05889 26.1323 7.00088 25.9853 7H7.08182C6.9548 6.99959 6.83183 7.04468 6.73518 7.1271L1.16582 11.5757C1.09531 11.6442 1.04017 11.7269 1.00406 11.8183C0.998653 11.8411 0.998653 11.8648 1.00406 11.8876C0.998647 11.9221 0.998647 11.9572 1.00406 11.9916V15.3309C1.00406 15.478 1.06249 15.6191 1.1665 15.7231C1.27052 15.8271 1.41159 15.8856 1.55868 15.8856H2.11331V28.6997C2.11626 28.8459 2.17564 28.9852 2.27902 29.0886C2.3824 29.192 2.52176 29.2514 2.66793 29.2543H5.96102C6.03385 29.2543 6.10597 29.24 6.17326 29.2121C6.24055 29.1842 6.30169 29.1434 6.35319 29.0919C6.4047 29.0404 6.44555 28.9792 6.47342 28.9119C6.50129 28.8446 6.51564 28.7725 6.51564 28.6997V15.8971H8.74569V22.6335C8.74865 22.7797 8.80803 22.919 8.91141 23.0224C9.01479 23.1258 9.15415 23.1852 9.30032 23.1881H12.6396C12.7125 23.1881 12.7846 23.1738 12.8519 23.1459C12.9192 23.118 12.9803 23.0772 13.0318 23.0257C13.0833 22.9742 13.1242 22.913 13.152 22.8457C13.1799 22.7784 13.1942 22.7063 13.1942 22.6335V15.8971H18.7636V22.6335C18.7636 22.7806 18.822 22.9216 18.926 23.0257C19.0301 23.1297 19.1711 23.1881 19.3182 23.1881H22.6575C22.8037 23.1852 22.9431 23.1258 23.0464 23.0224C23.1498 22.919 23.2092 22.7797 23.2121 22.6335V15.8971H25.4422V28.6997C25.4422 28.8468 25.5006 28.9879 25.6046 29.0919C25.7087 29.1959 25.8497 29.2543 25.9968 29.2543H29.3361C29.4823 29.2514 29.6217 29.192 29.725 29.0886C29.8284 28.9852 29.8878 28.8459 29.8908 28.6997V15.8971H30.4454C30.5925 15.8971 30.7335 15.8387 30.8376 15.7347C30.9416 15.6306 31 15.4896 31 15.3425V12.0032C31 12.0032 31 11.957 31 11.9339ZM7.27825 8.10925H25.7657L29.105 11.4486H3.09546L7.27825 8.10925ZM5.40639 28.1451H3.18789V15.8971H5.40639V28.1451ZM12.085 22.0673H9.85494V15.8971H12.085V22.0673ZM22.1029 22.0673H19.8728V15.8971H22.1029V22.0673ZM28.7699 28.1451H26.5515V15.8971H28.7699V28.1451ZM29.9254 14.7879H2.11331V12.5694H29.8445L29.9254 14.7879Z" fill="#272727"/>
</svg>
