<svg width="33" height="33" viewBox="0 0 33 33" fill="none" xmlns="http://www.w3.org/2000/svg">
<g clip-path="url(#clip0_85_11650)">
<path d="M29.3008 17.3376C29.3473 17.2433 29.3743 17.1377 29.3743 17.0256V15.9895C29.3743 15.2781 28.7954 14.6993 28.084 14.6993H27.2334V8.91284C27.2334 7.85807 26.3754 7 25.3206 7H6.73271C5.67794 7 4.81987 7.85814 4.81987 8.91284V14.6993H3.9153C3.20385 14.6993 2.62508 15.2781 2.62508 15.9895V17.0256C2.62508 17.1377 2.652 17.2435 2.69862 17.3378C1.7213 17.6024 1 18.4965 1 19.5564V22.6442C1 23.2109 1.46098 23.6719 2.02772 23.6719H4.16034V24.6347C4.16034 24.9763 4.43825 25.2542 4.77985 25.2542H5.33535C5.67695 25.2542 5.95486 24.9763 5.95486 24.6347V23.6719H26.757V24.6347C26.757 24.9763 27.035 25.2542 27.3766 25.2542H27.9321C28.2737 25.2542 28.5516 24.9763 28.5516 24.6347V23.6719H29.9723C30.539 23.6719 31 23.2109 31 22.6442V19.5564C31.0002 18.4962 30.2786 17.6019 29.3008 17.3376ZM5.29606 8.91284C5.29606 8.12064 5.94051 7.47619 6.73271 7.47619H25.3207C26.1129 7.47619 26.7574 8.12071 26.7574 8.91284V14.6387H23.9369V14.0071C23.9369 13.6258 23.6267 13.3157 23.2454 13.3157H18.2791C17.8978 13.3157 17.5876 13.6258 17.5876 14.0071V14.6387H14.4659V14.0071C14.4659 13.6258 14.1557 13.3157 13.7745 13.3157H8.80812C8.42677 13.3157 8.11665 13.6258 8.11665 14.0071V14.6387H5.29606V8.91284ZM23.4607 14.0071V14.6387H18.0637V14.0071C18.0637 13.8885 18.1603 13.7918 18.279 13.7918H23.2453C23.364 13.7918 23.4607 13.8885 23.4607 14.0071ZM13.9896 14.0071V14.6387H8.59278V14.0071C8.59278 13.8885 8.68934 13.7918 8.80805 13.7918H13.7744C13.8931 13.7918 13.9896 13.8885 13.9896 14.0071ZM3.10134 15.9895C3.10134 15.5407 3.46648 15.1755 3.91536 15.1755H28.0841C28.5329 15.1755 28.8982 15.5407 28.8982 15.9895V17.0256C28.8982 17.1533 28.7944 17.2572 28.6666 17.2572H3.33295C3.20517 17.2572 3.10134 17.1533 3.10134 17.0256V15.9895ZM5.47873 24.6346C5.47873 24.7136 5.41445 24.7779 5.33541 24.7779H4.77992C4.70088 24.7779 4.6366 24.7136 4.6366 24.6346V23.7145H5.47873V24.6346ZM28.0755 24.6346C28.0755 24.7136 28.0112 24.7779 27.9322 24.7779H27.3767C27.2977 24.7779 27.2334 24.7136 27.2334 24.6346V23.7145H28.0755V24.6346ZM30.524 22.6442C30.524 22.9483 30.2766 23.1957 29.9725 23.1957H2.02772C1.72355 23.1957 1.47619 22.9483 1.47619 22.6442V19.5564C1.47619 18.5515 2.29366 17.7339 3.29863 17.7339H5.76438H26.2357H28.7014C29.7064 17.7339 30.5239 18.5515 30.5239 19.5564V22.6442H30.524Z" fill="#272727" stroke="#272727" stroke-width="0.6"/>
</g>
<defs>
<clipPath id="clip0_85_11650">
<rect width="32" height="32" fill="white" transform="translate(0.166016 0.5)"/>
</clipPath>
</defs>
</svg>
