<svg width="33" height="33" viewBox="0 0 33 33" fill="none" xmlns="http://www.w3.org/2000/svg">
<path d="M8.83301 1.5C8.56779 1.5 8.31344 1.60536 8.1259 1.79289C7.93836 1.98043 7.83301 2.23478 7.83301 2.5V16.5C7.28658 16.5499 6.77852 16.8022 6.4085 17.2073C6.03849 17.6125 5.83323 18.1413 5.83301 18.69V19.27C5.83467 19.6368 5.92681 19.9976 6.10124 20.3203C6.27567 20.643 6.52702 20.9177 6.83301 21.12V30.5C6.83301 30.7652 6.93836 31.0196 7.1259 31.2071C7.31344 31.3946 7.56779 31.5 7.83301 31.5C8.09822 31.5 8.35258 31.3946 8.54011 31.2071C8.72765 31.0196 8.83301 30.7652 8.83301 30.5V28.5H24.833V30.5C24.833 30.7652 24.9384 31.0196 25.1259 31.2071C25.3134 31.3946 25.5678 31.5 25.833 31.5C26.0982 31.5 26.3526 31.3946 26.5401 31.2071C26.7277 31.0196 26.833 30.7652 26.833 30.5V21.14C27.139 20.9377 27.3903 20.663 27.5648 20.3403C27.7392 20.0176 27.8313 19.6568 27.833 19.29V18.71C27.8378 18.1579 27.6348 17.6241 27.2643 17.2147C26.8938 16.8053 26.3829 16.5502 25.833 16.5V2.5C25.833 2.23478 25.7277 1.98043 25.5401 1.79289C25.3526 1.60536 25.0982 1.5 24.833 1.5C24.5678 1.5 24.3134 1.60536 24.1259 1.79289C23.9384 1.98043 23.833 2.23478 23.833 2.5V3.5H9.83301V2.5C9.83301 2.23478 9.72765 1.98043 9.54011 1.79289C9.35258 1.60536 9.09822 1.5 8.83301 1.5ZM23.833 16.5H9.83301V11.5H23.833V16.5ZM7.83301 18.71C7.83301 18.6543 7.85513 18.6009 7.89452 18.5615C7.9339 18.5221 7.98731 18.5 8.04301 18.5H25.623C25.6787 18.5 25.7321 18.5221 25.7715 18.5615C25.8109 18.6009 25.833 18.6543 25.833 18.71V19.29C25.833 19.3176 25.8276 19.3449 25.817 19.3704C25.8065 19.3958 25.791 19.419 25.7715 19.4385C25.752 19.458 25.7288 19.4735 25.7034 19.484C25.6779 19.4946 25.6506 19.5 25.623 19.5H8.04301C8.01543 19.5 7.98812 19.4946 7.96264 19.484C7.93717 19.4735 7.91402 19.458 7.89452 19.4385C7.87502 19.419 7.85955 19.3958 7.84899 19.3704C7.83844 19.3449 7.83301 19.3176 7.83301 19.29V18.71ZM8.83301 26.5V21.5H24.833V26.5H8.83301ZM23.833 5.5V9.5H9.83301V5.5H23.833Z" fill="#272727" stroke="white" stroke-width="0.4"/>
</svg>
