<svg width="33" height="33" viewBox="0 0 33 33" fill="none" xmlns="http://www.w3.org/2000/svg">
<g clip-path="url(#clip0_85_11663)">
<path d="M8.20772 11.7154C8.20772 11.9697 8.41456 12.1765 8.66884 12.1765H9.50905C9.76333 12.1765 9.97017 11.9697 9.97017 11.7154V8.50684H16.089V11.7154C16.089 11.9697 16.2958 12.1765 16.5501 12.1765H17.3903C17.6446 12.1765 17.8515 11.9697 17.8515 11.7154V8.50684H24.3171V11.7154C24.3171 11.9697 24.524 12.1765 24.7783 12.1765H25.6185C25.8727 12.1765 26.0797 11.9697 26.0797 11.7154V8.50684H30.3966V8.03777H28.2636C28.3104 7.94148 28.3375 7.83393 28.3375 7.71992C28.3375 7.52871 28.2629 7.35502 28.1422 7.22479C28.263 7.09449 28.3375 6.92087 28.3375 6.72966C28.3375 6.3273 28.0101 6 27.6078 6H22.7891C22.3867 6 22.0594 6.3273 22.0594 6.72966C22.0594 6.92087 22.1339 7.09456 22.2547 7.22479C22.1339 7.35502 22.0594 7.52871 22.0594 7.71992C22.0594 7.83393 22.0865 7.94148 22.1333 8.03777H20.0354C20.0822 7.94148 20.1093 7.83393 20.1093 7.71992C20.1093 7.52871 20.0347 7.35502 19.914 7.22479C20.0348 7.09449 20.1093 6.92087 20.1093 6.72966C20.1093 6.3273 19.782 6 19.3797 6H14.5609C14.1586 6 13.8313 6.3273 13.8313 6.72966C13.8313 6.92087 13.9058 7.09456 14.0265 7.22479C13.9058 7.35502 13.8313 7.52871 13.8313 7.71992C13.8313 7.83393 13.8583 7.94148 13.9051 8.03777H12.1541C12.201 7.94148 12.228 7.83393 12.228 7.71992C12.228 7.52871 12.1535 7.35502 12.0328 7.22479C12.1536 7.09449 12.228 6.92087 12.228 6.72966C12.228 6.3273 11.9006 6 11.4984 6H6.6796C6.27724 6 5.94994 6.3273 5.94994 6.72966C5.94994 6.92087 6.02447 7.09456 6.14519 7.22479C6.02447 7.35502 5.94994 7.52871 5.94994 7.71992C5.94994 7.83393 5.97697 7.94148 6.02382 8.03777H3.54395V8.50684H8.20772V11.7154ZM25.6107 11.7074H24.7864V8.50684H25.6107V11.7074ZM22.7891 6.46907H27.6078C27.7516 6.46907 27.8684 6.58601 27.8684 6.72966C27.8684 6.87338 27.7516 6.99025 27.6078 6.99025H22.7891C22.6454 6.99025 22.5286 6.87338 22.5286 6.72966C22.5286 6.58601 22.6454 6.46907 22.7891 6.46907ZM22.7891 7.45932H27.6078C27.7516 7.45932 27.8684 7.57626 27.8684 7.71992C27.8684 7.86357 27.7516 7.98051 27.6078 7.98051H22.7891C22.6454 7.98051 22.5286 7.86357 22.5286 7.71992C22.5286 7.57626 22.6454 7.45932 22.7891 7.45932ZM17.3825 11.7074H16.5581V8.50684H17.3825V11.7074ZM14.5609 6.46907H19.3797C19.5233 6.46907 19.6403 6.58601 19.6403 6.72966C19.6403 6.87338 19.5233 6.99025 19.3797 6.99025H14.5609C14.4172 6.99025 14.3003 6.87338 14.3003 6.72966C14.3003 6.58601 14.4173 6.46907 14.5609 6.46907ZM14.5609 7.45932H19.3797C19.5233 7.45932 19.6403 7.57626 19.6403 7.71992C19.6403 7.86357 19.5233 7.98051 19.3797 7.98051H14.5609C14.4172 7.98051 14.3003 7.86357 14.3003 7.71992C14.3003 7.57626 14.4173 7.45932 14.5609 7.45932ZM9.50117 11.7074H8.67679V8.50684H9.50117V11.7074ZM6.6796 6.46907H11.4983C11.6419 6.46907 11.7589 6.58601 11.7589 6.72966C11.7589 6.87338 11.6419 6.99025 11.4983 6.99025H6.6796C6.53588 6.99025 6.41901 6.87338 6.41901 6.72966C6.41901 6.58601 6.53595 6.46907 6.6796 6.46907ZM6.6796 7.98051C6.53588 7.98051 6.41901 7.86357 6.41901 7.71992C6.41901 7.5762 6.53595 7.45932 6.6796 7.45932H11.4983C11.6419 7.45932 11.7589 7.57626 11.7589 7.71992C11.7589 7.86357 11.6419 7.98051 11.4983 7.98051H6.6796Z" fill="#272727" stroke="#272727" stroke-width="0.4"/>
<path d="M31.2616 14.2563H22.4579C22.0508 14.2563 21.7196 14.5875 21.7196 14.9946V15.8246C21.6205 15.7752 21.5093 15.7467 21.3914 15.7467H12.5878C12.478 15.7467 12.3741 15.7714 12.2803 15.8146V14.9946C12.2803 14.5874 11.9491 14.2563 11.542 14.2563H2.73839C2.33121 14.2563 2 14.5875 2 14.9946V26.0264C2 26.4335 2.33121 26.7648 2.73839 26.7648H11.542C11.7461 26.7648 11.9311 26.6815 12.0649 26.5471C12.1987 26.6815 12.3837 26.7648 12.5878 26.7648H21.3914C21.6011 26.7648 21.7902 26.6765 21.9247 26.5357C22.0592 26.6764 22.2483 26.7648 22.458 26.7648H31.2616C31.6688 26.7648 32 26.4335 32 26.0264V14.9947C32 14.5875 31.6688 14.2563 31.2616 14.2563ZM11.8113 26.0264C11.8113 26.1748 11.6905 26.2957 11.542 26.2957H2.73839C2.58985 26.2957 2.46907 26.1749 2.46907 26.0264V17.7793H11.8113V26.0264ZM11.8113 17.3102H2.46907V14.9947C2.46907 14.8462 2.58985 14.7254 2.73839 14.7254H11.542C11.6905 14.7254 11.8113 14.8461 11.8113 14.9947V17.3102ZM21.6608 26.0264C21.6608 26.1748 21.5399 26.2957 21.3914 26.2957H12.5878C12.4392 26.2957 12.3184 26.1749 12.3184 26.0264V16.4851C12.3184 16.3366 12.4392 16.2158 12.5878 16.2158H21.3914C21.5399 16.2158 21.6608 16.3365 21.6608 16.4851V26.0264ZM31.5309 26.0264C31.5309 26.1748 31.4101 26.2957 31.2616 26.2957H22.4579C22.3095 26.2957 22.1887 26.1749 22.1887 26.0264V17.7793H31.5309V26.0264H31.5309ZM31.5309 17.3102H22.1887V14.9947C22.1887 14.8462 22.3095 14.7254 22.458 14.7254H31.2616C31.4101 14.7254 31.5309 14.8461 31.5309 14.9947V17.3102Z" fill="#272727" stroke="#272727" stroke-width="0.4"/>
<path d="M19.828 17.3102H14.1515C13.7443 17.3102 13.4131 17.6414 13.4131 18.0486V24.4627C13.4131 24.8699 13.7443 25.2011 14.1515 25.2011H19.828C20.2352 25.2011 20.5664 24.8699 20.5664 24.4627V18.0486C20.5664 17.6414 20.2352 17.3102 19.828 17.3102ZM20.0974 24.4627C20.0974 24.6112 19.9765 24.7321 19.828 24.7321H14.1515C14.003 24.7321 13.8822 24.6113 13.8822 24.4627V18.0486C13.8822 17.9001 14.0029 17.7792 14.1515 17.7792H19.828C19.9765 17.7792 20.0974 17.9 20.0974 18.0486V24.4627Z" fill="#272727" stroke="#272727" stroke-width="0.4"/>
<path d="M17.785 18.6388H16.1953V19.1079H17.785V18.6388Z" fill="#272727" stroke="#272727" stroke-width="0.4"/>
</g>
<defs>
<clipPath id="clip0_85_11663">
<rect width="32" height="32" fill="white" transform="translate(0.5 0.5)"/>
</clipPath>
</defs>
</svg>
