<svg width="25" height="24" viewBox="0 0 25 24" fill="none" xmlns="http://www.w3.org/2000/svg">
<g clip-path="url(#clip0_326_4184)">
<path d="M17.6456 15.6562C16.3612 16.4719 14.594 16.7953 13.4268 16.9172L14.4065 17.8828L17.9831 21.4594C19.2909 22.8 17.1628 24.8953 15.8409 23.6016C14.9456 22.6922 13.6331 21.3797 12.2643 20.0109L8.68778 23.5969C7.36591 24.8859 5.23778 22.7719 6.55966 21.4547C7.46903 20.5453 8.76747 19.2328 10.1362 17.8781L11.1018 16.9125C9.94872 16.7906 8.15341 16.4859 6.85497 15.6516C5.32685 14.6672 4.65654 14.0906 5.24716 12.8859C5.59403 12.2016 6.5456 11.625 7.80653 12.6188C7.80653 12.6188 9.5081 13.9734 12.255 13.9734C15.0018 13.9734 16.7034 12.6188 16.7034 12.6188C17.9643 11.6297 18.9112 12.2016 19.2628 12.8859C19.844 14.0906 19.1737 14.6672 17.6456 15.6562ZM6.1706 6.07969C6.1706 2.71875 8.90341 0 12.2503 0C15.5972 0 18.33 2.71875 18.33 6.07969C18.33 9.42656 15.5972 12.1453 12.2503 12.1453C8.90341 12.1453 6.1706 9.42656 6.1706 6.07969ZM9.26435 6.07969C9.26435 7.725 10.605 9.06562 12.2503 9.06562C13.8956 9.06562 15.2362 7.725 15.2362 6.07969C15.2362 4.42031 13.8956 3.07969 12.2503 3.07969C10.605 3.07969 9.26435 4.42031 9.26435 6.07969Z" fill="#A3A3A3"/>
</g>
<defs>
<clipPath id="clip0_326_4184">
<rect width="24" height="24" fill="white" transform="translate(0.75)"/>
</clipPath>
</defs>
</svg>
