<svg width="32" height="32" viewBox="0 0 32 32" fill="none" xmlns="http://www.w3.org/2000/svg">
<path d="M15.0625 27.0625L15.0625 16.9375L4.9375 16.9375C4.41972 16.9375 4 16.5178 4 16C4 15.4822 4.41972 15.0625 4.9375 15.0625L15.0625 15.0625L15.0625 4.9375C15.0625 4.41972 15.4822 4 16 4C16.5178 4 16.9375 4.41972 16.9375 4.9375L16.9375 15.0625L27.0625 15.0625C27.5803 15.0625 28 15.4822 28 16C28 16.5178 27.5803 16.9375 27.0625 16.9375L16.9375 16.9375L16.9375 27.0625C16.9375 27.5803 16.5178 28 16 28C15.4822 28 15.0625 27.5803 15.0625 27.0625Z" fill="#272727"/>
</svg>
