<svg width="20" height="20" viewBox="0 0 20 20" fill="none" xmlns="http://www.w3.org/2000/svg">
<path d="M19.3736 20C19.207 20 19.0495 19.935 18.9321 19.8167L13.5043 14.3881C12.8703 14.9304 12.1563 15.3728 11.3773 15.7036C10.3534 16.1385 9.27782 16.3592 8.18059 16.3592C7.13335 16.3592 6.10444 16.1585 5.12052 15.7611C3.09519 14.9438 1.50976 13.3875 0.655805 11.3772C-0.198148 9.36766 -0.218976 7.14488 0.598319 5.12039C1.41562 3.09589 2.97189 1.50962 4.98139 0.655669C6.0053 0.219945 7.08003 0 8.17809 0C9.22533 0 10.2542 0.201616 11.2382 0.598184C13.2635 1.41548 14.8489 2.97176 15.7029 4.98209C16.5568 6.99242 16.5777 9.21436 15.7604 11.2389C15.4254 12.0686 14.9639 12.8293 14.3865 13.5033L19.816 18.9336C20.0593 19.1769 20.0593 19.5734 19.816 19.8175C19.6977 19.935 19.5402 20 19.3736 20ZM8.17809 1.24969C7.24916 1.24969 6.33772 1.43631 5.47043 1.80538C3.76753 2.52937 2.44869 3.87237 1.75636 5.58777C1.06404 7.30317 1.08153 9.1852 1.80468 10.8881C2.52867 12.591 3.87167 13.9099 5.58707 14.6022C6.42103 14.9388 7.29331 15.1087 8.17976 15.1087C9.10869 15.1087 10.0201 14.9221 10.8874 14.553C11.6989 14.2081 12.4262 13.7216 13.0485 13.1067C13.0569 13.0951 13.066 13.0851 13.0752 13.0759C13.0885 13.0626 13.101 13.0517 13.1127 13.0434C13.7484 12.4011 14.2532 11.6329 14.6007 10.7706C15.293 9.05524 15.2755 7.17321 14.5515 5.4703C13.8283 3.76739 12.4845 2.44855 10.7691 1.75623C9.93682 1.42048 9.06454 1.24969 8.17809 1.24969Z" fill="#272727"/>
</svg>
