<svg width="25" height="24" viewBox="0 0 25 24" fill="none" xmlns="http://www.w3.org/2000/svg">
<path d="M7.375 10.795C8.815 13.625 11.13 15.94 13.965 17.38L16.165 15.175C16.44 14.9 16.835 14.82 17.18 14.93C18.3 15.3 19.505 15.5 20.75 15.5C21.305 15.5 21.75 15.945 21.75 16.5V20C21.75 20.555 21.305 21 20.75 21C11.36 21 3.75 13.39 3.75 4C3.75 3.445 4.2 3 4.75 3H8.25C8.805 3 9.25 3.445 9.25 4C9.25 5.245 9.45 6.45 9.82 7.57C9.93 7.915 9.85 8.31 9.575 8.585L7.375 10.795V10.795Z" fill="#A3A3A3"/>
</svg>
