<svg width="24" height="24" viewBox="0 0 24 24" fill="none" xmlns="http://www.w3.org/2000/svg">
<path fill-rule="evenodd" clip-rule="evenodd" d="M10.8454 0.0838138C10.0524 0.2709 9.16325 0.690068 8.50722 1.186C7.97837 1.5858 7.02749 2.66157 6.73816 3.18733C6.13279 4.28757 5.96061 5.02365 5.96037 6.51201C5.96013 7.82717 6.05627 8.32897 6.49985 9.32818C6.85161 10.1204 7.14039 10.557 7.81026 11.3093L8.37428 11.9427L8.0603 12.2806C7.81834 12.5411 7.62005 12.6754 7.19541 12.8665C6.56587 13.1499 5.59264 13.7552 5.01477 14.223C4.43636 14.691 3.52077 15.7017 3.09127 16.3462C2.42085 17.3522 1.85337 18.6782 1.55828 19.9282C1.28377 21.0911 1.11305 23.0179 1.24648 23.4476C1.38616 23.8976 1.84633 24.1103 2.24497 23.9093C2.60177 23.7293 2.68655 23.5037 2.73113 22.6151C2.9058 19.133 4.26631 16.5369 6.80072 14.8495C8.1104 13.9775 9.64588 13.5244 11.5742 13.441C14.4585 13.3163 16.9165 14.2532 18.7118 16.1615C20.3175 17.8684 21.1134 19.906 21.2824 22.7422C21.3316 23.5685 21.3336 23.5769 21.5237 23.7576C21.8689 24.0854 22.171 24.081 22.5333 23.7429C22.8147 23.4802 22.8437 23.2726 22.757 22.1395C22.5314 19.1898 21.5182 16.7975 19.7039 14.9306C18.8277 14.0292 17.4921 13.0849 16.6457 12.7687C16.453 12.6967 16.0774 12.5214 15.8111 12.3791L15.3271 12.1203L16.0258 11.3615C17.4239 9.84334 17.9888 8.56512 18.0559 6.76746C18.0811 6.09426 18.0651 5.77012 17.9867 5.35864C17.7425 4.07789 17.2502 3.08023 16.3859 2.11471C15.3557 0.964048 14.4102 0.373997 13.1341 0.0853628C12.6339 -0.027741 11.322 -0.0286445 10.8454 0.0838138ZM12.8114 1.6989C14.5913 2.06087 16.0162 3.51179 16.4395 5.39305C16.6069 6.13719 16.5772 7.27372 16.3724 7.96454C15.8525 9.71785 14.5732 10.9703 12.971 11.2943C12.4335 11.403 11.3937 11.3909 10.8679 11.2699C8.72452 10.7767 7.44144 8.9848 7.44545 6.49019C7.44769 5.0977 7.86838 3.94755 8.70211 3.05486C9.76024 1.92175 11.3416 1.4 12.8114 1.6989Z" fill="#272727"/>
</svg>
