<svg width="25" height="24" viewBox="0 0 25 24" fill="none" xmlns="http://www.w3.org/2000/svg">
<path d="M22.2942 6.80568C22.4316 6.34158 22.2942 6 21.6333 6H19.4465C18.8895 6 18.6334 6.29331 18.496 6.62004C18.496 6.62004 17.3822 9.33409 15.8079 11.094C15.2993 11.6026 15.0654 11.766 14.7869 11.766C14.6495 11.766 14.4379 11.6026 14.4379 11.1385V6.80568C14.4379 6.24876 14.282 6 13.8216 6H10.3835C10.0345 6 9.8266 6.2599 9.8266 6.50123C9.8266 7.02845 10.6137 7.15097 10.6954 8.63609V11.8588C10.6954 12.5642 10.5692 12.6942 10.2907 12.6942C9.54814 12.6942 7.74372 9.96898 6.67443 6.85023C6.45909 6.24504 6.24746 6 5.68683 6H3.49999C2.87624 6 2.75 6.29331 2.75 6.62004C2.75 7.19923 3.49256 10.0767 6.20662 13.8786C8.01475 16.4738 10.5617 17.881 12.8785 17.881C14.2708 17.881 14.4416 17.5691 14.4416 17.0307C14.4416 14.5506 14.3154 14.3167 15.0134 14.3167C15.3364 14.3167 15.8933 14.48 17.1928 15.7312C18.6779 17.2164 18.923 17.881 19.7546 17.881H21.9415C22.5652 17.881 22.8808 17.5691 22.6989 16.9528C22.2831 15.657 19.4725 12.9912 19.3462 12.813C19.0232 12.3972 19.116 12.2115 19.3462 11.8402C19.3499 11.8365 22.0194 8.07917 22.2942 6.80568Z" fill="#A3A3A3"/>
</svg>
